name pl02_filtered_grf.mot
datacolumns 37
datarows 11
range 0.546000 0.551000
endheader
time	1_ground_force_vx	1_ground_force_vy	1_ground_force_vz	1_ground_force_px	1_ground_force_py	1_ground_force_pz	1_ground_torque_x	1_ground_torque_y	1_ground_torque_z	2_ground_force_vx	2_ground_force_vy	2_ground_force_vz	2_ground_force_px	2_ground_force_py	2_ground_force_pz	2_ground_torque_x	2_ground_torque_y	2_ground_torque_z	3_ground_force_vx	3_ground_force_vy	3_ground_force_vz	3_ground_force_px	3_ground_force_py	3_ground_force_pz	3_ground_torque_x	3_ground_torque_y	3_ground_torque_z	4_ground_force_vx	4_ground_force_vy	4_ground_force_vz	4_ground_force_px	4_ground_force_py	4_ground_force_pz	4_ground_torque_x	4_ground_torque_y	4_ground_torque_z
            0.546000	            0.000000	           -0.000000	           -0.000000	            0.145658	            0.000000	            0.221846	           -0.000000	           -0.000000	            0.000000	           -0.000000	           -0.000000	           -0.000000	           -0.297438	            0.000000	            0.094812	           -0.000000	            0.000000	           -0.000000	           -0.339951	           -1.015352	            0.935778	            0.411795	            1.262295	            1.873801	            0.003395	            0.238676	            0.185342	           -2.736890	           -4.609750	            0.227081	           -0.353970	            1.256640	            1.900651	           -0.038838	           -0.531084	           -0.332491
            0.546500	            0.000000	           -0.000000	           -0.000000	            0.145658	            0.000000	            0.221846	           -0.000000	           -0.000000	            0.000000	           -0.000000	           -0.000000	           -0.000000	           -0.297438	            0.000000	            0.094812	           -0.000000	            0.000000	           -0.000000	           -0.354077	           -0.872672	            0.828836	            0.411801	            1.262293	            1.873755	            0.003928	            0.218144	            0.171689	           -2.689283	           -4.542054	            0.125101	           -0.353969	            1.256631	            1.900620	           -0.038947	           -0.515071	           -0.329208
            0.547000	            0.000000	           -0.000000	           -0.000000	            0.145658	            0.000000	            0.221846	           -0.000000	           -0.000000	            0.000000	           -0.000000	           -0.000000	           -0.000000	           -0.297438	            0.000000	            0.094812	           -0.000000	            0.000000	           -0.000000	           -0.359700	           -0.730800	            0.723112	            0.411806	            1.262291	            1.873709	            0.004532	            0.197517	            0.158017	           -2.638966	           -4.456348	            0.015513	           -0.353968	            1.256623	            1.900589	           -0.038547	           -0.497095	           -0.323815
            0.547500	            0.000000	           -0.000000	           -0.000000	            0.145658	            0.000000	            0.221846	           -0.000000	           -0.000000	            0.000000	           -0.000000	           -0.000000	           -0.000000	           -0.297438	            0.000000	            0.094812	           -0.000000	            0.000000	           -0.000000	           -0.357270	           -0.590550	            0.619278	            0.411812	            1.262288	            1.873663	            0.005199	            0.176927	            0.144410	           -2.586307	           -4.354479	           -0.100501	           -0.353967	            1.256614	            1.900557	           -0.037677	           -0.477401	           -0.316502
            0.548000	            0.000000	           -0.000000	           -0.000000	            0.145658	            0.000000	            0.221846	           -0.000000	           -0.000000	            0.000000	           -0.000000	           -0.000000	           -0.000000	           -0.297438	            0.000000	            0.094812	           -0.000000	            0.000000	           -0.000000	           -0.347240	           -0.452667	            0.517956	            0.411816	            1.262286	            1.873616	            0.005923	            0.156501	            0.130946	           -2.531658	           -4.238245	           -0.221767	           -0.353966	            1.256605	            1.900527	           -0.036378	           -0.456223	           -0.307452
            0.548500	            0.000000	           -0.000000	           -0.000000	            0.145658	            0.000000	            0.221846	           -0.000000	           -0.000000	            0.000000	           -0.000000	           -0.000000	           -0.000000	           -0.297438	            0.000000	            0.094812	           -0.000000	            0.000000	           -0.000000	           -0.330094	           -0.317846	            0.419694	            0.411820	            1.262284	            1.873570	            0.006694	            0.136355	            0.117701	           -2.475360	           -4.109383	           -0.347226	           -0.353964	            1.256597	            1.900496	           -0.034688	           -0.433785	           -0.296849
            0.549000	            0.000000	           -0.000000	           -0.000000	            0.145658	            0.000000	            0.221846	           -0.000000	           -0.000000	            0.000000	           -0.000000	           -0.000000	           -0.000000	           -0.297438	            0.000000	            0.094812	           -0.000000	            0.000000	           -0.000000	           -0.306314	           -0.186713	            0.324994	            0.411824	            1.262282	            1.873524	            0.007507	            0.116594	            0.104740	           -2.417737	           -3.969572	           -0.475828	           -0.353962	            1.256588	            1.900466	           -0.032644	           -0.410303	           -0.284866
            0.549500	            0.000000	           -0.000000	           -0.000000	            0.145658	            0.000000	            0.221846	           -0.000000	           -0.000000	            0.000000	           -0.000000	           -0.000000	           -0.000000	           -0.297438	            0.000000	            0.094812	           -0.000000	            0.000000	           -0.000000	           -0.276388	           -0.059835	            0.234305	            0.411828	            1.262280	            1.873478	            0.008353	            0.097317	            0.092124	           -2.359098	           -3.820429	           -0.606576	           -0.353960	            1.256580	            1.900436	           -0.030282	           -0.385985	           -0.271674
            0.550000	            0.000000	           -0.000000	           -0.000000	            0.145658	            0.000000	            0.221846	           -0.000000	           -0.000000	            0.000000	           -0.000000	           -0.000000	           -0.000000	           -0.297438	            0.000000	            0.094812	           -0.000000	            0.000000	           -0.000000	           -0.240809	            0.062280	            0.148023	            0.411832	            1.262277	            1.873432	            0.009227	            0.078612	            0.079906	           -2.299736	           -3.663503	           -0.738522	           -0.353959	            1.256571	            1.900405	           -0.027638	           -0.361028	           -0.257435
            0.550500	            0.000000	           -0.000000	           -0.000000	            0.145658	            0.000000	            0.221846	           -0.000000	           -0.000000	            0.000000	           -0.000000	           -0.000000	           -0.000000	           -0.297438	            0.000000	            0.094812	           -0.000000	            0.000000	           -0.000000	           -0.200072	            0.179183	            0.066489	            0.411835	            1.262275	            1.873386	            0.010123	            0.060562	            0.068137	           -2.239934	           -3.500285	           -0.870735	           -0.353956	            1.256563	            1.900376	           -0.024749	           -0.335620	           -0.242303
            0.551000	            0.000000	           -0.000000	           -0.000000	            0.145658	            0.000000	            0.221846	           -0.000000	           -0.000000	            0.000000	           -0.000000	           -0.000000	           -0.000000	           -0.297438	            0.000000	            0.094812	           -0.000000	            0.000000	           -0.000000	           -0.154674	            0.290478	           -0.010005	            0.411838	            1.262273	            1.873341	            0.011034	            0.043235	            0.056857	           -2.179949	           -3.332183	           -1.002408	           -0.353954	            1.256555	            1.900346	           -0.021645	           -0.309936	           -0.226432
